<svg width="718" height="761" xmlns="http://www.w3.org/2000/svg" xmlns:xlink="http://www.w3.org/1999/xlink" overflow="hidden"><defs><clipPath id="clip0"><path d="M218-7 936-7 936 754 218 754Z" fill-rule="evenodd" clip-rule="evenodd"/></clipPath></defs><g clip-path="url(#clip0)" transform="translate(-218 7)"><path d="M928.5 2.50005 928.5 194.5" stroke="#000000" stroke-width="0.666667" stroke-miterlimit="8" stroke-dasharray="5.33333 2" fill="none" fill-rule="evenodd"/><path d="M0 0 96 135.36" stroke="#000000" stroke-width="0.666667" stroke-miterlimit="8" stroke-dasharray="5.33333 2" fill="none" fill-rule="evenodd" transform="matrix(1 0 0 -1 832.5 140.86)"/><path d="M736.5 1.50005 928.5 1.50016" stroke="#000000" stroke-width="0.666667" stroke-miterlimit="8" stroke-dasharray="5.33333 2" fill="none" fill-rule="evenodd"/><path d="M227.568 710.255 227.01 298.001 230.01 297.997 230.568 710.251ZM224.012 299.506 228.5 290.5 233.012 299.494Z"/><path d="M228.5 709 715.349 709 715.349 712 228.5 712ZM713.849 706 722.849 710.5 713.849 715Z"/><path d="M1.22352-0.867748 92.8847 128.375 90.4377 130.11-1.22352 0.867748ZM94.4641 125.416 96 135.36 87.1229 130.622Z" transform="matrix(1 0 0 -1 229.5 710.86)"/><text font-family="Cambria Math,Cambria Math_MSFontService,sans-serif" font-weight="400" font-size="24" transform="translate(712.837 742)">𝑢<tspan font-size="18" x="13.28" y="5">1</tspan><tspan x="-397.807" y="-130">𝑢</tspan><tspan font-size="18" x="-383.974" y="-126">2</tspan><tspan x="-475.83" y="-419">𝑢</tspan><tspan font-size="18" x="-461.997" y="-414">3</tspan></text><path d="M0 0 96 135.36" stroke="#000000" stroke-width="1.33333" stroke-miterlimit="8" stroke-dasharray="10.6667 4" fill="none" fill-rule="evenodd" transform="matrix(1 0 0 -1 543.5 658.86)"/><path d="M736.5 388.5 928.5 388.5" stroke="#000000" stroke-width="0.666667" stroke-miterlimit="8" stroke-dasharray="5.33333 2" fill="none" fill-rule="evenodd"/><path d="M928.5 196.5 928.5 388.5" stroke="#000000" stroke-width="0.666667" stroke-miterlimit="8" stroke-dasharray="5.33333 2" fill="none" fill-rule="evenodd"/><path d="M0 0 96 135.36" stroke="#000000" stroke-width="0.666667" stroke-miterlimit="8" stroke-dasharray="5.33333 2" fill="none" fill-rule="evenodd" transform="matrix(1 0 0 -1 832.5 523.86)"/><path d="M0 0 96 135.36" stroke="#000000" stroke-width="0.666667" stroke-miterlimit="8" stroke-dasharray="5.33333 2" fill="none" fill-rule="evenodd" transform="matrix(1 0 0 -1 447.5 135.86)"/><path d="M543.5 0.500053 735.5 0.500157" stroke="#000000" stroke-width="0.666667" stroke-miterlimit="8" stroke-dasharray="5.33333 2" fill="none" fill-rule="evenodd"/><path d="M543.5 1.50005 543.5 193.5" stroke="#000000" stroke-width="0.666667" stroke-miterlimit="8" stroke-dasharray="5.33333 2" fill="none" fill-rule="evenodd"/><path d="M447.5 523.5 639.5 523.5" stroke="#000000" stroke-width="1.33333" stroke-miterlimit="8" stroke-dasharray="10.6667 4" fill="none" fill-rule="evenodd"/><path d="M543.5 387.5 735.5 387.5" stroke="#000000" stroke-width="0.666667" stroke-miterlimit="8" stroke-dasharray="5.33333 2" fill="none" fill-rule="evenodd"/><path d="M543.5 195.5 543.5 387.5" stroke="#000000" stroke-width="0.666667" stroke-miterlimit="8" stroke-dasharray="5.33333 2" fill="none" fill-rule="evenodd"/><path d="M0 0 96 135.36" stroke="#000000" stroke-width="0.666667" stroke-miterlimit="8" stroke-dasharray="5.33333 2" fill="none" fill-rule="evenodd" transform="matrix(1 0 0 -1 447.5 520.86)"/><path d="M544.5 274.5 736.5 274.5" stroke="#000000" stroke-width="0.666667" stroke-miterlimit="8" stroke-dasharray="5.33333 2" fill="none" fill-rule="evenodd"/><path d="M736.5 274.5 736.5 466.5" stroke="#000000" stroke-width="0.666667" stroke-miterlimit="8" stroke-dasharray="5.33333 2" fill="none" fill-rule="evenodd"/><path d="M0 0 96 135.36" stroke="#000000" stroke-width="0.666667" stroke-miterlimit="8" stroke-dasharray="5.33333 2" fill="none" fill-rule="evenodd" transform="matrix(1 0 0 -1 736.5 277.86)"/><path d="M0 0 96 135.36" stroke="#000000" stroke-width="0.666667" stroke-miterlimit="8" stroke-dasharray="5.33333 2" fill="none" fill-rule="evenodd" transform="matrix(1 0 0 -1 736.5 660.86)"/><path d="M736.5 468.5 736.5 660.5" stroke="#000000" stroke-width="0.666667" stroke-miterlimit="8" stroke-dasharray="5.33333 2" fill="none" fill-rule="evenodd"/><path d="M544.5 660.5 736.5 660.5" stroke="#000000" stroke-width="0.666667" stroke-miterlimit="8" stroke-dasharray="5.33333 2" fill="none" fill-rule="evenodd"/><path d="M352.5 274.5 544.5 274.5" stroke="#000000" stroke-width="0.666667" stroke-miterlimit="8" stroke-dasharray="5.33333 2" fill="none" fill-rule="evenodd"/><path d="M0 0 96 135.36" stroke="#000000" stroke-width="0.666667" stroke-miterlimit="8" stroke-dasharray="5.33333 2" fill="none" fill-rule="evenodd" transform="matrix(1 0 0 -1 352.5 272.86)"/><path d="M352.5 274.5 352.5 466.5" stroke="#000000" stroke-width="0.666667" stroke-miterlimit="8" stroke-dasharray="5.33333 2" fill="none" fill-rule="evenodd"/><path d="M351.5 659.5 543.5 659.5" stroke="#000000" stroke-width="0.666667" stroke-miterlimit="8" stroke-dasharray="5.33333 2" fill="none" fill-rule="evenodd"/><path d="M0 0 96 135.36" stroke="#000000" stroke-width="0.666667" stroke-miterlimit="8" stroke-dasharray="5.33333 2" fill="none" fill-rule="evenodd" transform="matrix(1 0 0 -1 352.5 656.86)"/><path d="M351.5 468.5 351.5 660.5" stroke="#000000" stroke-width="0.666667" stroke-miterlimit="8" stroke-dasharray="5.33333 2" fill="none" fill-rule="evenodd"/><path d="M0 0 287.521 324.631" stroke="#000000" stroke-width="3" stroke-miterlimit="8" stroke-dasharray="12 9" fill="none" fill-rule="evenodd" transform="matrix(1 0 0 -1 640.5 330.131)"/><path d="M0 0 286.662 328.494" stroke="#000000" stroke-width="3" stroke-miterlimit="8" stroke-dasharray="12 9" fill="none" fill-rule="evenodd" transform="matrix(-1 -8.74228e-08 -8.74228e-08 1 639.162 330.5)"/><path d="M641.5 333.5 736.821 662.984" stroke="#000000" stroke-width="3" stroke-miterlimit="8" stroke-dasharray="12 9" fill="none" fill-rule="evenodd"/><path d="M0 0 96.2595 59.3368" stroke="#000000" stroke-width="3" stroke-miterlimit="8" stroke-dasharray="12 9" fill="none" fill-rule="evenodd" transform="matrix(-1 -8.74228e-08 -8.74228e-08 1 639.76 328.5)"/><path d="M641.5 327.5 927.169 387.879" stroke="#000000" stroke-width="3" stroke-miterlimit="8" stroke-dasharray="12 9" fill="none" fill-rule="evenodd"/><path d="M641.204 329.056 544.5 2.50003" stroke="#000000" stroke-width="3" stroke-miterlimit="8" stroke-dasharray="12 9" fill="none" fill-rule="evenodd"/><path d="M641.887 329.837 352.5 274.5" stroke="#000000" stroke-width="3" stroke-miterlimit="8" stroke-dasharray="12 9" fill="none" fill-rule="evenodd"/><path d="M0 0 94.8322 54.6292" stroke="#000000" stroke-width="3" stroke-miterlimit="8" stroke-dasharray="12 9" fill="none" fill-rule="evenodd" transform="matrix(1 0 0 -1 641.5 331.129)"/><path d="M0 0 0.000104987 192" stroke="#000000" stroke-width="3" stroke-miterlimit="8" stroke-dasharray="12 9" fill="none" fill-rule="evenodd" transform="matrix(1 0 0 -1 642.5 328.5)"/><path d="M642.5 328.5 642.5 520.5" stroke="#000000" stroke-width="3" stroke-miterlimit="8" stroke-dasharray="12 9" fill="none" fill-rule="evenodd"/><path d="M642.5 328.5 834.5 328.5" stroke="#000000" stroke-width="3" stroke-miterlimit="8" stroke-dasharray="12 9" fill="none" fill-rule="evenodd"/><path d="M0 0 192 0.000104987" stroke="#000000" stroke-width="3" stroke-miterlimit="8" stroke-dasharray="12 9" fill="none" fill-rule="evenodd" transform="matrix(-1 -8.74228e-08 -8.74228e-08 1 642.5 328.5)"/><path d="M0 0 96 135.36" stroke="#000000" stroke-width="3" stroke-miterlimit="8" stroke-dasharray="12 9" fill="none" fill-rule="evenodd" transform="matrix(1 0 0 -1 642.5 328.86)"/><path d="M0 0 96 135.36" stroke="#000000" stroke-width="3" stroke-miterlimit="8" stroke-dasharray="12 9" fill="none" fill-rule="evenodd" transform="matrix(-1 -8.74228e-08 -8.74228e-08 1 642.5 328.5)"/><path d="M0 0 194.266 197.192" stroke="#000000" stroke-width="3" stroke-miterlimit="8" stroke-dasharray="12 9" fill="none" fill-rule="evenodd" transform="matrix(-1 -8.74228e-08 -8.74228e-08 1 641.766 327.5)"/><path d="M642.5 328.5 831.805 524.97" stroke="#000000" stroke-width="3" stroke-miterlimit="8" stroke-dasharray="12 9" fill="none" fill-rule="evenodd"/><path d="M0 0 96 329.051" stroke="#000000" stroke-width="3" stroke-miterlimit="8" stroke-dasharray="12 9" fill="none" fill-rule="evenodd" transform="matrix(-1 -8.74228e-08 -8.74228e-08 1 642.5 329.5)"/><path d="M642.5 329.5 722.806 387.831" stroke="#000000" stroke-width="3" stroke-miterlimit="8" stroke-dasharray="12 9" fill="none" fill-rule="evenodd"/><path d="M0 0 189.305 187.818" stroke="#000000" stroke-width="3" stroke-miterlimit="8" stroke-dasharray="12 9" fill="none" fill-rule="evenodd" transform="matrix(1 0 0 -1 642.5 330.318)"/><path d="M640.987 328.866 447.5 136.5" stroke="#000000" stroke-width="3" stroke-miterlimit="8" stroke-dasharray="12 9" fill="none" fill-rule="evenodd"/><path d="M0 0 94.2932 325.55" stroke="#000000" stroke-width="3" stroke-miterlimit="8" stroke-dasharray="12 9" fill="none" fill-rule="evenodd" transform="matrix(1 0 0 -1 641.5 328.051)"/><path d="M642.5 327.639 546.5 274.5" stroke="#000000" stroke-width="3" stroke-miterlimit="8" stroke-dasharray="12 9" fill="none" fill-rule="evenodd"/><path d="M834.5 329.5 834.5 521.5" stroke="#000000" stroke-width="1.33333" stroke-miterlimit="8" stroke-dasharray="10.6667 4" fill="none" fill-rule="evenodd"/><path d="M0 0 96 135.36" stroke="#000000" stroke-width="1.33333" stroke-miterlimit="8" stroke-dasharray="10.6667 4" fill="none" fill-rule="evenodd" transform="matrix(1 0 0 -1 834.5 328.86)"/><path d="M451.5 328.5 451.5 520.5" stroke="#000000" stroke-width="1.33333" stroke-miterlimit="8" stroke-dasharray="10.6667 4" fill="none" fill-rule="evenodd"/><path d="M0 0 96 135.36" stroke="#000000" stroke-width="1.33333" stroke-miterlimit="8" stroke-dasharray="10.6667 4" fill="none" fill-rule="evenodd" transform="matrix(1 0 0 -1 353.5 465.86)"/><path d="M0 0 96 135.36" stroke="#000000" stroke-width="1.33333" stroke-miterlimit="8" stroke-dasharray="10.6667 4" fill="none" fill-rule="evenodd" transform="matrix(1 0 0 -1 640.5 138.86)"/><path d="M546.5 463.5 546.5 655.5" stroke="#000000" stroke-width="0.666667" stroke-miterlimit="8" stroke-dasharray="5.33333 2" fill="none" fill-rule="evenodd"/><path d="M450.5 138.5 642.5 138.5" stroke="#000000" stroke-width="1.33333" stroke-miterlimit="8" stroke-dasharray="10.6667 4" fill="none" fill-rule="evenodd"/><path d="M737.5 5.50005 737.5 197.5" stroke="#000000" stroke-width="1.33333" stroke-miterlimit="8" stroke-dasharray="10.6667 4" fill="none" fill-rule="evenodd"/><path d="M738.5 196.5 930.5 196.5" stroke="#000000" stroke-width="1.33333" stroke-miterlimit="8" stroke-dasharray="10.6667 4" fill="none" fill-rule="evenodd"/><path d="M349.5 274.5C349.5 271.186 352.41 268.5 356 268.5 359.59 268.5 362.5 271.186 362.5 274.5 362.5 277.814 359.59 280.5 356 280.5 352.41 280.5 349.5 277.814 349.5 274.5Z" stroke="#000000" stroke-width="1.33333" stroke-miterlimit="8" fill-rule="evenodd"/><path d="M349.5 656.5C349.5 653.186 352.186 650.5 355.5 650.5 358.814 650.5 361.5 653.186 361.5 656.5 361.5 659.814 358.814 662.5 355.5 662.5 352.186 662.5 349.5 659.814 349.5 656.5Z" stroke="#000000" stroke-width="1.33333" stroke-miterlimit="8" fill-rule="evenodd"/><path d="M541.5 657.5C541.5 654.186 544.41 651.5 548 651.5 551.59 651.5 554.5 654.186 554.5 657.5 554.5 660.814 551.59 663.5 548 663.5 544.41 663.5 541.5 660.814 541.5 657.5Z" stroke="#000000" stroke-width="1.33333" stroke-miterlimit="8" fill-rule="evenodd"/><path d="M730.5 659C730.5 655.41 733.41 652.5 737 652.5 740.59 652.5 743.5 655.41 743.5 659 743.5 662.59 740.59 665.5 737 665.5 733.41 665.5 730.5 662.59 730.5 659Z" stroke="#000000" stroke-width="1.33333" stroke-miterlimit="8" fill-rule="evenodd"/><path d="M826.5 522.5C826.5 519.186 829.41 516.5 833 516.5 836.59 516.5 839.5 519.186 839.5 522.5 839.5 525.814 836.59 528.5 833 528.5 829.41 528.5 826.5 525.814 826.5 522.5Z" stroke="#000000" stroke-width="1.33333" stroke-miterlimit="8" fill-rule="evenodd"/><path d="M922.5 389.5C922.5 386.186 925.186 383.5 928.5 383.5 931.814 383.5 934.5 386.186 934.5 389.5 934.5 392.814 931.814 395.5 928.5 395.5 925.186 395.5 922.5 392.814 922.5 389.5Z" stroke="#000000" stroke-width="1.33333" stroke-miterlimit="8" fill-rule="evenodd"/><path d="M921.5 2C921.5-1.58988 924.41-4.50005 928-4.50005 931.59-4.50005 934.5-1.58988 934.5 2 934.5 5.58988 931.59 8.50005 928 8.50005 924.41 8.50005 921.5 5.58988 921.5 2Z" stroke="#000000" stroke-width="1.33333" stroke-miterlimit="8" fill-rule="evenodd"/><path d="M538.5 1C538.5-2.58988 541.41-5.50005 545-5.50005 548.59-5.50005 551.5-2.58988 551.5 1 551.5 4.58988 548.59 7.50005 545 7.50005 541.41 7.50005 538.5 4.58988 538.5 1Z" stroke="#000000" stroke-width="1.33333" stroke-miterlimit="8" fill-rule="evenodd"/><path d="M731.5 1.5C731.5-1.81374 734.41-4.50005 738-4.50005 741.59-4.50005 744.5-1.81374 744.5 1.5 744.5 4.81374 741.59 7.50005 738 7.50005 734.41 7.50005 731.5 4.81374 731.5 1.5Z" stroke="#000000" stroke-width="1.33333" stroke-miterlimit="8" fill-rule="evenodd"/><path d="M441.5 137.5C441.5 134.186 444.186 131.5 447.5 131.5 450.814 131.5 453.5 134.186 453.5 137.5 453.5 140.814 450.814 143.5 447.5 143.5 444.186 143.5 441.5 140.814 441.5 137.5Z" stroke="#000000" stroke-width="1.33333" stroke-miterlimit="8" fill-rule="evenodd"/><path d="M635.5 138.5C635.5 135.186 638.41 132.5 642 132.5 645.59 132.5 648.5 135.186 648.5 138.5 648.5 141.814 645.59 144.5 642 144.5 638.41 144.5 635.5 141.814 635.5 138.5Z" stroke="#000000" stroke-width="1.33333" stroke-miterlimit="8" fill-rule="evenodd"/><path d="M446.5 328.5C446.5 325.186 449.41 322.5 453 322.5 456.59 322.5 459.5 325.186 459.5 328.5 459.5 331.814 456.59 334.5 453 334.5 449.41 334.5 446.5 331.814 446.5 328.5Z" stroke="#000000" stroke-width="1.33333" stroke-miterlimit="8" fill-rule="evenodd"/><path d="M825.5 329C825.5 325.41 828.41 322.5 832 322.5 835.59 322.5 838.5 325.41 838.5 329 838.5 332.59 835.59 335.5 832 335.5 828.41 335.5 825.5 332.59 825.5 329Z" stroke="#000000" stroke-width="1.33333" stroke-miterlimit="8" fill-rule="evenodd"/><path d="M442.5 520.5C442.5 517.186 445.41 514.5 449 514.5 452.59 514.5 455.5 517.186 455.5 520.5 455.5 523.814 452.59 526.5 449 526.5 445.41 526.5 442.5 523.814 442.5 520.5Z" stroke="#000000" stroke-width="1.33333" stroke-miterlimit="8" fill-rule="evenodd"/><path d="M634.5 523.5C634.5 520.186 637.186 517.5 640.5 517.5 643.814 517.5 646.5 520.186 646.5 523.5 646.5 526.814 643.814 529.5 640.5 529.5 637.186 529.5 634.5 526.814 634.5 523.5Z" stroke="#000000" stroke-width="1.33333" stroke-miterlimit="8" fill-rule="evenodd"/><path d="M713.5 387.5C713.5 384.186 716.41 381.5 720 381.5 723.59 381.5 726.5 384.186 726.5 387.5 726.5 390.814 723.59 393.5 720 393.5 716.41 393.5 713.5 390.814 713.5 387.5Z" stroke="#000000" stroke-width="1.33333" stroke-miterlimit="8" fill-rule="evenodd"/><path d="M538.5 385.5C538.5 382.186 541.186 379.5 544.5 379.5 547.814 379.5 550.5 382.186 550.5 385.5 550.5 388.814 547.814 391.5 544.5 391.5 541.186 391.5 538.5 388.814 538.5 385.5Z" stroke="#000000" stroke-width="1.33333" stroke-miterlimit="8" fill-rule="evenodd"/><path d="M730.5 195C730.5 191.41 733.41 188.5 737 188.5 740.59 188.5 743.5 191.41 743.5 195 743.5 198.59 740.59 201.5 737 201.5 733.41 201.5 730.5 198.59 730.5 195Z" stroke="#000000" stroke-width="1.33333" stroke-miterlimit="8" fill-rule="evenodd"/><path d="M731.5 276.5C731.5 273.186 734.41 270.5 738 270.5 741.59 270.5 744.5 273.186 744.5 276.5 744.5 279.814 741.59 282.5 738 282.5 734.41 282.5 731.5 279.814 731.5 276.5Z" stroke="#000000" stroke-width="1.33333" stroke-miterlimit="8" fill-rule="evenodd"/><path d="M822.5 147.5C822.5 144.186 825.41 141.5 829 141.5 832.59 141.5 835.5 144.186 835.5 147.5 835.5 150.814 832.59 153.5 829 153.5 825.41 153.5 822.5 150.814 822.5 147.5Z" stroke="#000000" stroke-width="1.33333" stroke-miterlimit="8" fill-rule="evenodd"/><path d="M538.5 275C538.5 271.41 541.41 268.5 545 268.5 548.59 268.5 551.5 271.41 551.5 275 551.5 278.59 548.59 281.5 545 281.5 541.41 281.5 538.5 278.59 538.5 275Z" stroke="#000000" stroke-width="1.33333" stroke-miterlimit="8" fill-rule="evenodd"/><path d="M346.5 466C346.5 462.41 349.41 459.5 353 459.5 356.59 459.5 359.5 462.41 359.5 466 359.5 469.59 356.59 472.5 353 472.5 349.41 472.5 346.5 469.59 346.5 466Z" stroke="#000000" stroke-width="1.33333" stroke-miterlimit="8" fill-rule="evenodd"/><path d="M541.5 461C541.5 457.41 544.41 454.5 548 454.5 551.59 454.5 554.5 457.41 554.5 461 554.5 464.59 551.59 467.5 548 467.5 544.41 467.5 541.5 464.59 541.5 461Z" stroke="#000000" stroke-width="1.33333" stroke-miterlimit="8" fill-rule="evenodd"/><path d="M730.5 466C730.5 462.41 733.41 459.5 737 459.5 740.59 459.5 743.5 462.41 743.5 466 743.5 469.59 740.59 472.5 737 472.5 733.41 472.5 730.5 469.59 730.5 466Z" stroke="#000000" stroke-width="1.33333" stroke-miterlimit="8" fill-rule="evenodd"/><path d="M921.5 196.5C921.5 193.186 924.41 190.5 928 190.5 931.59 190.5 934.5 193.186 934.5 196.5 934.5 199.814 931.59 202.5 928 202.5 924.41 202.5 921.5 199.814 921.5 196.5Z" stroke="#000000" stroke-width="1.33333" stroke-miterlimit="8" fill-rule="evenodd"/><path d="M537.5 193.5C537.5 190.186 540.41 187.5 544 187.5 547.59 187.5 550.5 190.186 550.5 193.5 550.5 196.814 547.59 199.5 544 199.5 540.41 199.5 537.5 196.814 537.5 193.5Z" stroke="#000000" stroke-width="1.33333" stroke-miterlimit="8" fill-rule="evenodd"/><path d="M634.5 329.5C634.5 326.186 637.41 323.5 641 323.5 644.59 323.5 647.5 326.186 647.5 329.5 647.5 332.814 644.59 335.5 641 335.5 637.41 335.5 634.5 332.814 634.5 329.5Z" stroke="#000000" stroke-width="1.33333" stroke-miterlimit="8" fill-rule="evenodd"/><path d="M638.953 328.56 578.579 96.1815 582.45 95.1757 642.824 327.555ZM575.21 99.1232 578 86 586.825 96.1057Z" fill="#4472C4"/><text font-family="Cambria Math,Cambria Math_MSFontService,sans-serif" font-weight="400" font-size="24" transform="translate(584.001 78)">𝒗</text><path d="M641.5 328.5 736.531 466.729" stroke="#000000" stroke-width="3" stroke-miterlimit="8" stroke-dasharray="12 9" fill="none" fill-rule="evenodd"/><path d="M0 0 287.971 136.61" stroke="#000000" stroke-width="3" stroke-miterlimit="8" stroke-dasharray="12 9" fill="none" fill-rule="evenodd" transform="matrix(-1 -8.74228e-08 -8.74228e-08 1 640.471 329.5)"/><path d="M642.478 327.536 544.5 192.5" stroke="#000000" stroke-width="3" stroke-miterlimit="8" stroke-dasharray="12 9" fill="none" fill-rule="evenodd"/><path d="M0 0 286.992 135.281" stroke="#000000" stroke-width="3" stroke-miterlimit="8" stroke-dasharray="12 9" fill="none" fill-rule="evenodd" transform="matrix(1 0 0 -1 641.5 330.781)"/><path d="M636.5 329C636.5 325.41 639.41 322.5 643 322.5 646.59 322.5 649.5 325.41 649.5 329 649.5 332.59 646.59 335.5 643 335.5 639.41 335.5 636.5 332.59 636.5 329Z" stroke="#000000" stroke-width="1.33333" stroke-miterlimit="8" fill-rule="evenodd"/></g></svg>